<svg xmlns="http://www.w3.org/2000/svg" viewBox="0 0 280 64" fill="none">
  <defs>
    <linearGradient id="bg" x1="8" y1="2" x2="62" y2="62" gradientUnits="userSpaceOnUse">
      <stop stop-color="#3F8451"/>
      <stop offset="1" stop-color="#052D12"/>
    </linearGradient>
    <linearGradient id="bar1" x1="17" y1="45" x2="17" y2="54" gradientUnits="userSpaceOnUse">
      <stop stop-color="#44CF72"/>
      <stop offset="1" stop-color="#1D9447"/>
    </linearGradient>
    <linearGradient id="bar2" x1="25" y1="40" x2="25" y2="54" gradientUnits="userSpaceOnUse">
      <stop stop-color="#48D474"/>
      <stop offset="1" stop-color="#229D4D"/>
    </linearGradient>
    <linearGradient id="bar3" x1="34" y1="34" x2="34" y2="54" gradientUnits="userSpaceOnUse">
      <stop stop-color="#49D472"/>
      <stop offset="1" stop-color="#26A04F"/>
    </linearGradient>
    <linearGradient id="bar4" x1="43" y1="26" x2="43" y2="54" gradientUnits="userSpaceOnUse">
      <stop stop-color="#4BD477"/>
      <stop offset="1" stop-color="#28A350"/>
    </linearGradient>
    <linearGradient id="bar5" x1="52" y1="22" x2="52" y2="54" gradientUnits="userSpaceOnUse">
      <stop stop-color="#4FD57A"/>
      <stop offset="1" stop-color="#2AA652"/>
    </linearGradient>
    <linearGradient id="arrow" x1="14" y1="43" x2="58" y2="11" gradientUnits="userSpaceOnUse">
      <stop stop-color="#FFD56B"/>
      <stop offset="0.55" stop-color="#F0A030"/>
      <stop offset="1" stop-color="#C96A10"/>
    </linearGradient>
    <radialGradient id="orb" cx="0" cy="0" r="1" gradientTransform="translate(36 31) rotate(90) scale(9)" gradientUnits="userSpaceOnUse">
      <stop offset="0" stop-color="#FFF6D6"/>
      <stop offset="0.28" stop-color="#FBE3A7"/>
      <stop offset="0.58" stop-color="#D28C3B"/>
      <stop offset="1" stop-color="#8C4308"/>
    </radialGradient>
    <radialGradient id="orbGlow" cx="0" cy="0" r="1" gradientTransform="translate(33 28) rotate(90) scale(3.2)" gradientUnits="userSpaceOnUse">
      <stop stop-color="#FFFBEA"/>
      <stop offset="1" stop-color="#FFFBEA" stop-opacity="0"/>
    </radialGradient>
  </defs>
  <rect x="0" y="2" width="64" height="60" rx="16" fill="url(#bg)"/>
  <rect x="12" y="45" width="6" height="9" rx="1.5" fill="url(#bar1)"/>
  <rect x="21" y="40" width="6" height="14" rx="1.5" fill="url(#bar2)"/>
  <rect x="30" y="34" width="6" height="20" rx="1.5" fill="url(#bar3)"/>
  <rect x="39" y="26" width="6" height="28" rx="1.5" fill="url(#bar4)"/>
  <rect x="48" y="22" width="6" height="32" rx="1.5" fill="url(#bar5)"/>
  <path d="M14 45C22 45 27 40 33 35L55 17C56.4 15.9 58.3 16.1 59.3 17.6C60.3 19 60.1 21 58.7 22L36.8 40C29.9 45.7 24.7 50 15.1 50C13 50 11.3 48.3 11.3 46.2C11.3 45.6 12.4 45 14 45Z" fill="url(#arrow)"/>
  <path d="M53 14L60 16.5L56 23L53 14Z" fill="#F3C05D"/>
  <circle cx="36" cy="31" r="9" fill="url(#orb)"/>
  <circle cx="33" cy="28" r="3.2" fill="url(#orbGlow)"/>
  <text x="78" y="28" font-family="'DM Sans','Arial',sans-serif" font-size="22" font-weight="700" fill="#0D3D27">Expense Lite AI</text>
  <text x="78" y="45" font-family="'DM Sans','Arial',sans-serif" font-size="10" font-weight="600" letter-spacing="1.8" fill="#5F6B7A">TRACK · PLAN · ASK AI</text>
</svg>
